<svg width="60" viewBox="0 0 59 26" xmlns="http://www.w3.org/2000/svg" fill="none">
  <path fill="#303345" d="m56.1941,13.3398l0,-6.08003l2.56,0l0,11.20003l-1.92,0l-4.32,-6.08l0,6.08l-2.56,0l0,-11.20003l1.92,0l4.32,6.08003z"/>
  <path fill="#303345" d="m40.5166,7.25977l4.24,0c1.1093,0 2.0373,0.37333 2.784,1.12c0.7573,0.75733 1.136,1.66403 1.136,2.72003c0,1.056 -0.3787,1.9626 -1.136,2.72c-0.7467,0.7466 -1.6747,1.12 -2.784,1.12l-1.68,0l0,3.52l-2.56,0l0,-11.20003zm2.56,5.28003l1.68,0c0.3947,0 0.72,-0.1387 0.976,-0.416c0.256,-0.2774 0.384,-0.6187 0.384,-1.024c0,-0.4054 -0.128,-0.7467 -0.384,-1.024c-0.256,-0.27737 -0.5813,-0.41603 -0.976,-0.41603l-1.68,0l0,2.88003z"/>
  <path fill="#00C0FF" d="m40.1906,17.3697c0,0.3749 -0.1345,0.6969 -0.4037,0.966c-0.2691,0.2692 -0.5911,0.4038 -0.966,0.4038c-0.3749,0 -0.6969,-0.1346 -0.966,-0.4038c-0.2692,-0.2691 -0.4037,-0.5911 -0.4037,-0.966c0,-0.3748 0.1345,-0.6969 0.4037,-0.966c0.2691,-0.2691 0.5911,-0.4037 0.966,-0.4037c0.3749,0 0.6969,0.1346 0.966,0.4037c0.2692,0.2691 0.4037,0.5912 0.4037,0.966z"/>
  <path fill="#303345" d="m36.974,15.4203l-5.68,0c0.2667,0.7467 0.9067,1.12 1.92,1.12c0.6507,0 1.1627,-0.2026 1.536,-0.608l1.92,1.104c-0.7787,1.0987 -1.9413,1.648 -3.488,1.648c-1.3333,0 -2.4107,-0.4 -3.232,-1.2c-0.8,-0.8 -1.2,-1.808 -1.2,-3.024c0,-1.1946 0.3947,-2.1973 1.184,-3.008c0.8,-0.8106 1.824,-1.216 3.072,-1.216c1.1627,0 2.128,0.4054 2.896,1.216c0.7787,0.7894 1.168,1.792 1.168,3.008c0,0.3414 -0.032,0.6614 -0.096,0.96zm-5.728,-1.792l3.44,0c-0.2347,-0.8426 -0.8,-1.264 -1.696,-1.264c-0.928,0 -1.5093,0.4214 -1.744,1.264z"/>
  <path stroke="rgb(0,192,255)" stroke-linecap="round" stroke-linejoin="round" fill-opacity="0" stroke-width="2" d="m5.80468,4.92652c0,0 6.93931,3.77161 7.75405,4.22809c0.30657,0.17823 1.27323,0.84733 1.49597,1.98076m-5.61191,-8.09119c0,0 7.12181,3.93344 7.64168,4.22831c0.85677,0.40726 1.80501,1.54497 1.79804,2.71099c0.0281,0.49176 0.09821,3.32907 0.09821,3.32907m-6.08233,-12.1788c0,0 5.48987,3.04498 8.0069,4.38272c1.173,0.60414 1.81916,1.86119 1.85423,2.72516c0.01393,0.80058 -0.00023,4.03143 -0.01416,5.85757c0,1.91042 -2.14911,3.61024 -4.78998,2.20552c-2.37543,-1.26357 -10.19849,-5.90005 -12.06665,-6.98156c-1.86817,-1.08174 -4.83223,-0.39333 -4.83223,2.75325c0,3.14657 0.01393,3.61001 0,5.33793c-0.01393,1.72792 1.46091,2.4723 2.24755,2.96407c0.89902,0.5057 5.54875,3.14657 6.813,3.84893c1.26425,0.70236 2.43027,0.73068 3.87703,0.01416c1.43281,-0.78664 9.48175,-5.05698 9.48175,-5.05698"/>
</svg>